<svg width="32" height="32" viewBox="0 0 32 32" fill="none" xmlns="http://www.w3.org/2000/svg">
<path fill-rule="evenodd" clip-rule="evenodd" d="M14.5299 2.66933L17.3599 2.66919C17.4455 2.67316 17.5206 2.68295 17.6262 2.70592C18.4001 2.87445 18.6943 3.15234 19.4146 4.85432L19.532 5.13507L19.9846 6.25665L20.0219 6.27195L20.6051 6.00794C21.8753 5.43995 22.53 5.2007 22.9703 5.13395L23.0615 5.12222L23.2277 5.11326C23.6241 5.11326 24.0278 5.25366 24.3369 5.49813L24.483 5.62887L26.2923 7.43061L26.418 7.56354C26.9864 8.18957 27.0394 8.6334 26.4108 10.251L26.2016 10.7728L25.7086 11.9394L25.7179 11.9622L26.8474 12.384L27.3919 12.5992C28.7985 13.1743 29.0875 13.4808 29.2755 14.1849C29.3134 14.3268 29.3269 14.4235 29.3313 14.5436L29.3332 14.674V17.2176C29.3332 17.3984 29.327 17.5005 29.2825 17.6792C29.0953 18.4309 28.8175 18.7171 27.1271 19.4311L26.8483 19.5475L25.7344 19.997L25.7267 20.0157L26.1295 20.8956C27.131 23.1216 27.166 23.6096 26.5077 24.3427L26.4254 24.4319L24.5682 26.2878C24.2357 26.6239 23.762 26.8089 23.3037 26.8089C22.9145 26.8089 22.3031 26.6239 21.261 26.206L20.7031 25.9774L20.0677 25.7087L20.0313 25.7237L19.703 26.6044C18.899 28.7225 18.6236 29.0664 17.7977 29.2795C17.6757 29.311 17.5884 29.3244 17.4893 29.3299L17.3259 29.3333H14.7807C14.6218 29.3333 14.5322 29.3286 14.3744 29.2944C13.6008 29.1266 13.3054 28.8481 12.5837 27.1451L12.466 26.8642L12.0126 25.7421L11.9778 25.7277L11.1307 26.1085C9.77584 26.7049 9.18889 26.8864 8.77058 26.8864C8.37885 26.8864 7.97994 26.7488 7.66261 26.502L7.51116 26.3697L5.70441 24.5652L5.49809 24.3402C5.00261 23.7573 4.97825 23.3052 5.58642 21.7492L5.90334 20.9703L6.2902 20.0609L6.28213 20.0413L5.40629 19.715C3.64928 19.0482 3.10781 18.7411 2.8505 18.1805L2.7809 18.0041L2.72276 17.8087C2.68987 17.6839 2.67583 17.5944 2.67012 17.4926L2.6665 17.3247V14.7796C2.6665 14.5973 2.67282 14.4943 2.7182 14.3141C2.88739 13.6421 3.12752 13.3436 4.39246 12.7768L4.91671 12.5504L6.26294 12.006L6.27217 11.9836L5.76883 10.873C4.93828 8.98655 4.86949 8.41215 5.39351 7.77062L5.46521 7.68645L5.63499 7.50649L7.43472 5.71084C7.76445 5.37928 8.2361 5.19236 8.69516 5.19236C9.02351 5.19236 9.50563 5.32228 10.2772 5.61453L11.0535 5.92227L11.9335 6.2911L11.9696 6.27609L12.3005 5.38967C13.1119 3.25635 13.4015 2.89959 14.2575 2.70798C14.3654 2.68382 14.4424 2.67351 14.5299 2.66933ZM16.6972 5.33334H15.2106L15.001 5.82471C14.9214 6.02005 14.8316 6.24823 14.7302 6.51308L14.2656 7.75592C14.1542 8.05016 13.943 8.29387 13.6715 8.4463L13.5309 8.51472L12.4388 8.96919C12.163 9.08394 11.8585 9.10215 11.5737 9.024L11.4056 8.96555L10.1135 8.42091L9.41558 8.1426L8.94647 7.96946L7.89286 9.02069L8.01686 9.3339C8.06532 9.45186 8.12109 9.58376 8.18468 9.7307L8.39944 10.2177L8.93805 11.3952C9.06706 11.6756 9.09403 11.9902 9.01787 12.2855L8.95979 12.4599L8.51321 13.5451C8.39497 13.8325 8.18083 14.0679 7.90973 14.2131L7.76961 14.278L6.31951 14.8609L5.59462 15.1716L5.33317 15.2927V16.7996L5.64601 16.9352C5.76445 16.9847 5.89745 17.0387 6.0462 17.0977L6.54088 17.2896L7.74293 17.736C8.04598 17.8453 8.29745 18.0598 8.45341 18.3376L8.52324 18.4816L8.96988 19.5637C9.08458 19.8415 9.10138 20.1482 9.02072 20.4343L8.96063 20.603L8.44226 21.8194L8.11716 22.6219L7.95879 23.048L9.01248 24.1003L9.32622 23.9763C9.44179 23.9292 9.56844 23.8764 9.70651 23.8175L10.6743 23.3907L11.3722 23.0694C11.6643 22.9299 11.9953 22.9021 12.3038 22.9878L12.4558 23.0401L13.5544 23.4936C13.8456 23.6138 14.0832 23.8325 14.2275 24.1088L14.2917 24.2516L14.5651 24.9414L14.9541 25.8875L15.1793 26.4045L15.3014 26.6667H16.7923L17.0053 26.1647L17.2826 25.4566L17.7342 24.2458C17.8455 23.949 18.0583 23.7032 18.3321 23.5502L18.4739 23.4816L19.5678 23.0302C19.8404 22.9177 20.1409 22.8993 20.4225 22.975L20.5888 23.0317L21.6189 23.4686L22.3707 23.7748L22.7821 23.9335L23.0536 24.0318L24.1085 22.9787L23.9052 22.4771L23.6003 21.7817L23.0606 20.6052C22.9311 20.3243 22.9041 20.009 22.9806 19.7132L23.0389 19.5384L23.4847 18.4579C23.6024 18.1728 23.8145 17.9388 24.083 17.7936L24.2219 17.7286L25.45 17.2349L26.0769 16.9721L26.2494 16.8971L26.6665 16.7062V15.2008L26.2483 15.0223L25.6818 14.7981L24.252 14.2659C23.9496 14.1558 23.699 13.9409 23.5438 13.6631L23.4744 13.5191L23.0285 12.4327C22.9147 12.1555 22.8983 11.8498 22.9787 11.5647L23.0385 11.3965L23.4525 10.4287C23.5602 10.1727 23.654 9.94575 23.735 9.74514L23.8803 9.3783L24.0386 8.94962L22.9843 7.89976L22.6704 8.02398C22.4968 8.09478 22.2978 8.1788 22.0721 8.27692L21.8375 8.37977L20.607 8.93787C20.3271 9.06613 20.0132 9.09281 19.7186 9.01685L19.5446 8.95894L18.4468 8.50765C18.1594 8.38952 17.9238 8.17545 17.7785 7.90439L17.7136 7.76428L17.3254 6.79309L17.0441 6.1127L16.8883 5.75084L16.6972 5.33334ZM16.0005 10.6667C18.942 10.6667 21.3332 13.0574 21.3332 15.9988C21.3332 18.9405 18.9418 21.3333 16.0005 21.3333C13.0583 21.3333 10.6665 18.9409 10.6665 15.9988C10.6665 13.0569 13.0581 10.6667 16.0005 10.6667ZM16.0005 13.3333C14.5305 13.3333 13.3332 14.53 13.3332 15.9988C13.3332 17.4683 14.5312 18.6667 16.0005 18.6667C17.4687 18.6667 18.6665 17.4681 18.6665 15.9988C18.6665 14.5302 17.4694 13.3333 16.0005 13.3333Z" fill="black"/>
</svg>
