<svg width="32" height="32" viewBox="0 0 32 32" fill="none" xmlns="http://www.w3.org/2000/svg">
<path fill-rule="evenodd" clip-rule="evenodd" d="M9.33341 21.3333H22.6667C26.3486 21.3333 29.3334 24.3181 29.3334 28C29.3334 28.7364 28.7365 29.3333 28.0001 29.3333C27.3163 29.3333 26.7527 28.8186 26.6757 28.1555L26.66 27.765C26.5428 25.743 24.9238 24.1239 22.9018 24.0068L22.6667 24H9.33341C7.12428 24 5.33341 25.7909 5.33341 28C5.33341 28.7364 4.73646 29.3333 4.00008 29.3333C3.2637 29.3333 2.66675 28.7364 2.66675 28C2.66675 24.415 5.49649 21.4909 9.04423 21.3395L9.33341 21.3333H22.6667H9.33341ZM16.0001 2.66666C20.4184 2.66666 24.0001 6.24838 24.0001 10.6667C24.0001 15.0849 20.4184 18.6667 16.0001 18.6667C11.5818 18.6667 8.00008 15.0849 8.00008 10.6667C8.00008 6.24838 11.5818 2.66666 16.0001 2.66666ZM16.0001 5.33332C13.0546 5.33332 10.6667 7.72114 10.6667 10.6667C10.6667 13.6122 13.0546 16 16.0001 16C18.9456 16 21.3334 13.6122 21.3334 10.6667C21.3334 7.72114 18.9456 5.33332 16.0001 5.33332Z" fill="black"/>
</svg>
