<svg width="32" height="32" viewBox="0 0 32 32" fill="none" xmlns="http://www.w3.org/2000/svg">
<path fill-rule="evenodd" clip-rule="evenodd" d="M9.33341 21.3333H22.6667C26.3486 21.3333 29.3334 24.3181 29.3334 28C29.3334 28.7364 28.7365 29.3333 28.0001 29.3333C27.3163 29.3333 26.7527 28.8186 26.6757 28.1555L26.66 27.765C26.5428 25.743 24.9238 24.1239 22.9018 24.0068L22.6667 24H9.33341C7.12428 24 5.33341 25.7909 5.33341 28C5.33341 28.7364 4.73646 29.3333 4.00008 29.3333C3.2637 29.3333 2.66675 28.7364 2.66675 28C2.66675 24.415 5.49649 21.4909 9.04423 21.3395L9.33341 21.3333ZM16.0001 2.66666C16.5417 2.66666 17.0772 2.72067 17.6006 2.82705C18.3222 2.97371 18.7883 3.6776 18.6416 4.39923C18.495 5.12086 17.7911 5.58695 17.0694 5.44029C16.7206 5.36939 16.3631 5.33332 16.0001 5.33332C13.0546 5.33332 10.6667 7.72114 10.6667 10.6667C10.6667 13.6122 13.0546 16 16.0001 16C17.6998 16 19.2643 15.2011 20.2669 13.8672C20.7093 13.2785 21.5451 13.16 22.1338 13.6024C22.7224 14.0448 22.841 14.8807 22.3986 15.4693C20.8975 17.4665 18.5473 18.6667 16.0001 18.6667C11.5818 18.6667 8.00008 15.0849 8.00008 10.6667C8.00008 6.24838 11.5818 2.66666 16.0001 2.66666ZM25.3334 2.66666C26.0698 2.66666 26.6667 3.26361 26.6667 3.99999V5.33332H28.0001C28.7365 5.33332 29.3334 5.93028 29.3334 6.66666C29.3334 7.40304 28.7365 7.99999 28.0001 7.99999H26.6667V9.33332C26.6667 10.0697 26.0698 10.6667 25.3334 10.6667C24.597 10.6667 24.0001 10.0697 24.0001 9.33332V7.99999H22.6667C21.9304 7.99999 21.3334 7.40304 21.3334 6.66666C21.3334 5.93028 21.9304 5.33332 22.6667 5.33332H24.0001V3.99999C24.0001 3.26361 24.597 2.66666 25.3334 2.66666Z" fill="black"/>
</svg>
