<svg width="32" height="32" viewBox="0 0 32 32" fill="none" xmlns="http://www.w3.org/2000/svg">
<path fill-rule="evenodd" clip-rule="evenodd" d="M9.33341 21.3333H22.6667C26.3486 21.3333 29.3334 24.3181 29.3334 28C29.3334 28.7364 28.7365 29.3333 28.0001 29.3333C27.3163 29.3333 26.7527 28.8186 26.6757 28.1555L26.66 27.765C26.5428 25.743 24.9238 24.1239 22.9018 24.0068L22.6667 24H9.33341C7.12428 24 5.33341 25.7909 5.33341 28C5.33341 28.7364 4.73646 29.3333 4.00008 29.3333C3.2637 29.3333 2.66675 28.7364 2.66675 28C2.66675 24.415 5.49649 21.4909 9.04423 21.3395L9.33341 21.3333ZM16.0001 2.66666C16.5417 2.66666 17.0772 2.72067 17.6006 2.82705C18.3222 2.97371 18.7883 3.6776 18.6416 4.39923C18.495 5.12086 17.7911 5.58695 17.0694 5.44029C16.7206 5.36939 16.3631 5.33332 16.0001 5.33332C13.0546 5.33332 10.6667 7.72114 10.6667 10.6667C10.6667 13.6122 13.0546 16 16.0001 16C17.6998 16 19.2643 15.2011 20.2669 13.8672C20.7093 13.2785 21.5451 13.16 22.1338 13.6024C22.7224 14.0448 22.841 14.8807 22.3986 15.4693C20.8975 17.4665 18.5473 18.6667 16.0001 18.6667C11.5818 18.6667 8.00008 15.0849 8.00008 10.6667C8.00008 6.24838 11.5818 2.66666 16.0001 2.66666ZM23.6096 3.05718L25.3334 4.77999L27.0573 3.05718C27.5379 2.57654 28.2942 2.53956 28.8173 2.94626L28.9429 3.05718C29.4235 3.53783 29.4605 4.29413 29.0538 4.81719L28.9429 4.9428L27.2201 6.66666L28.9429 8.39051C29.4636 8.91121 29.4636 9.75543 28.9429 10.2761C28.4222 10.7968 27.578 10.7968 27.0573 10.2761L25.3334 8.55332L23.6096 10.2761C23.1289 10.7568 22.3726 10.7938 21.8496 10.3871L21.7239 10.2761C21.2433 9.79549 21.2063 9.03918 21.613 8.51612L21.7239 8.39051L23.4467 6.66666L21.7239 4.9428C21.2032 4.4221 21.2032 3.57788 21.7239 3.05718C22.2446 2.53648 23.0889 2.53648 23.6096 3.05718Z" fill="black"/>
</svg>
